<svg viewBox="0 0 800 400" xmlns="http://www.w3.org/2000/svg">
  <defs>
    <!-- Gradient for sky -->
    <linearGradient id="skyGradient" x1="0%" y1="0%" x2="0%" y2="100%">
      <stop offset="0%" style="stop-color:#87CEEB"/>
      <stop offset="100%" style="stop-color:#98D8E8"/>
    </linearGradient>
    
    <!-- Sun -->
    <circle id="sun" cx="0" cy="0" r="25" fill="#FFD700"/>
    
    <!-- Cloud -->
    <g id="cloud">
      <ellipse cx="25" cy="20" rx="25" ry="15" fill="white" opacity="0.8"/>
      <ellipse cx="45" cy="20" rx="35" ry="20" fill="white" opacity="0.8"/>
      <ellipse cx="65" cy="20" rx="25" ry="15" fill="white" opacity="0.8"/>
    </g>
    
    <!-- Tree -->
    <g id="tree">
      <rect x="-5" y="0" width="10" height="30" fill="#8B4513"/>
      <circle cx="0" cy="-15" r="20" fill="#228B22"/>
      <circle cx="-10" cy="-10" r="15" fill="#32CD32"/>
      <circle cx="10" cy="-10" r="15" fill="#32CD32"/>
    </g>
    
    <!-- Mountain -->
    <g id="mountain">
      <polygon points="0,0 60,-80 120,0" fill="#8B7355"/>
      <polygon points="60,-80 45,-60 60,-50 75,-60" fill="white"/>
    </g>
  </defs>
  
  <!-- Sky -->
  <rect width="800" height="300" fill="url(#skyGradient)"/>
  
  <!-- Title -->
  <text x="400" y="40" text-anchor="middle" font-family="Trebuchet MS, Helvetica, sans-serif" font-size="32" font-weight="600" fill="#2C3E50">Traveling Snails</text>
  
  <!-- Ground -->
  <rect y="300" width="800" height="100" fill="#90EE90"/>
  
  <!-- Road -->
  <rect y="330" width="800" height="40" fill="#505050"/>
  
  <!-- Road lines -->
  <g>
    <rect x="-100" y="348" width="40" height="4" fill="#FFD700">
      <animate attributeName="x" from="-100" to="0" dur="0.5s" repeatCount="indefinite"/>
    </rect>
    <rect x="0" y="348" width="40" height="4" fill="#FFD700">
      <animate attributeName="x" from="0" to="100" dur="0.5s" repeatCount="indefinite"/>
    </rect>
    <rect x="100" y="348" width="40" height="4" fill="#FFD700">
      <animate attributeName="x" from="100" to="200" dur="0.5s" repeatCount="indefinite"/>
    </rect>
    <rect x="200" y="348" width="40" height="4" fill="#FFD700">
      <animate attributeName="x" from="200" to="300" dur="0.5s" repeatCount="indefinite"/>
    </rect>
    <rect x="300" y="348" width="40" height="4" fill="#FFD700">
      <animate attributeName="x" from="300" to="400" dur="0.5s" repeatCount="indefinite"/>
    </rect>
    <rect x="400" y="348" width="40" height="4" fill="#FFD700">
      <animate attributeName="x" from="400" to="500" dur="0.5s" repeatCount="indefinite"/>
    </rect>
    <rect x="500" y="348" width="40" height="4" fill="#FFD700">
      <animate attributeName="x" from="500" to="600" dur="0.5s" repeatCount="indefinite"/>
    </rect>
    <rect x="600" y="348" width="40" height="4" fill="#FFD700">
      <animate attributeName="x" from="600" to="700" dur="0.5s" repeatCount="indefinite"/>
    </rect>
    <rect x="700" y="348" width="40" height="4" fill="#FFD700">
      <animate attributeName="x" from="700" to="800" dur="0.5s" repeatCount="indefinite"/>
    </rect>
  </g>
  
  <!-- Moving scenery -->
  <!-- Mountains -->
  <use href="#mountain" x="100" y="300">
    <animateTransform attributeName="transform" type="translate" from="0 0" to="-900 0" dur="20s" repeatCount="indefinite"/>
  </use>
  <use href="#mountain" x="400" y="300">
    <animateTransform attributeName="transform" type="translate" from="0 0" to="-900 0" dur="20s" repeatCount="indefinite"/>
  </use>
  <use href="#mountain" x="700" y="300">
    <animateTransform attributeName="transform" type="translate" from="0 0" to="-900 0" dur="20s" repeatCount="indefinite"/>
  </use>
  
  <!-- Trees -->
  <use href="#tree" x="50" y="300">
    <animateTransform attributeName="transform" type="translate" from="0 0" to="-850 0" dur="8s" repeatCount="indefinite"/>
  </use>
  <use href="#tree" x="200" y="300">
    <animateTransform attributeName="transform" type="translate" from="0 0" to="-850 0" dur="8s" repeatCount="indefinite"/>
  </use>
  <use href="#tree" x="350" y="300">
    <animateTransform attributeName="transform" type="translate" from="0 0" to="-850 0" dur="8s" repeatCount="indefinite"/>
  </use>
  <use href="#tree" x="500" y="300">
    <animateTransform attributeName="transform" type="translate" from="0 0" to="-850 0" dur="8s" repeatCount="indefinite"/>
  </use>
  <use href="#tree" x="650" y="300">
    <animateTransform attributeName="transform" type="translate" from="0 0" to="-850 0" dur="8s" repeatCount="indefinite"/>
  </use>
  <use href="#tree" x="800" y="300">
    <animateTransform attributeName="transform" type="translate" from="0 0" to="-850 0" dur="8s" repeatCount="indefinite"/>
  </use>
  
  <!-- Sun -->
  <use href="#sun" x="700" y="50">
    <animateTransform attributeName="transform" type="rotate" from="0 700 50" to="360 700 50" dur="60s" repeatCount="indefinite"/>
  </use>
  
  <!-- Clouds -->
  <use href="#cloud" x="100" y="50">
    <animateTransform attributeName="transform" type="translate" from="0 0" to="-900 0" dur="40s" repeatCount="indefinite"/>
  </use>
  <use href="#cloud" x="400" y="80">
    <animateTransform attributeName="transform" type="translate" from="0 0" to="-900 0" dur="45s" repeatCount="indefinite"/>
  </use>
  <use href="#cloud" x="700" y="60">
    <animateTransform attributeName="transform" type="translate" from="0 0" to="-900 0" dur="50s" repeatCount="indefinite"/>
  </use>
  
  <!-- Snail 1 -->
  <g transform="translate(300, 320)">
    <!-- Shadow -->
    <ellipse cx="0" cy="8" rx="30" ry="3" fill="black" opacity="0.2"/>
    
    <!-- Body -->
    <ellipse cx="0" cy="0" rx="30" ry="15" fill="#8B4513"/>
    
    <!-- Shell -->
    <g transform="translate(-5, -10)">
      <circle cx="0" cy="0" r="20" fill="#CD853F"/>
      <path d="M 0,0 m -15,0 a 15,15 0 0,1 30,0 m -25,0 a 10,10 0 0,1 20,0 m -15,0 a 5,5 0 0,1 10,0" 
            fill="none" stroke="#8B4513" stroke-width="2"/>
    </g>
    
    <!-- Head -->
    <ellipse cx="20" cy="-5" rx="15" ry="12" fill="#8B4513"/>
    
    <!-- Eyes -->
    <circle cx="25" cy="-12" r="3" fill="white"/>
    <circle cx="15" cy="-12" r="3" fill="white"/>
    <circle cx="25" cy="-12" r="1.5" fill="black"/>
    <circle cx="15" cy="-12" r="1.5" fill="black"/>
    
    <!-- Antennae -->
    <line x1="25" y1="-12" x2="28" y2="-18" stroke="#8B4513" stroke-width="2" stroke-linecap="round"/>
    <line x1="15" y1="-12" x2="12" y2="-18" stroke="#8B4513" stroke-width="2" stroke-linecap="round"/>
    <circle cx="28" cy="-18" r="2" fill="#8B4513"/>
    <circle cx="12" cy="-18" r="2" fill="#8B4513"/>
    
    <!-- Smile -->
    <path d="M 15,-5 Q 20,-2 25,-5" fill="none" stroke="black" stroke-width="1.5" stroke-linecap="round"/>
    
    <!-- Luggage -->
    <rect x="-30" y="-20" width="15" height="10" fill="#654321" rx="2"/>
    <rect x="-28" y="-18" width="11" height="1" fill="#FFD700"/>
    
    <!-- Animation -->
    <animateTransform attributeName="transform" type="translate" 
                      values="300,320; 305,318; 300,320" 
                      dur="1s" repeatCount="indefinite"/>
  </g>
  
  <!-- Snail 2 -->
  <g transform="translate(380, 325)">
    <!-- Shadow -->
    <ellipse cx="0" cy="8" rx="25" ry="3" fill="black" opacity="0.2"/>
    
    <!-- Body -->
    <ellipse cx="0" cy="0" rx="25" ry="12" fill="#D2691E"/>
    
    <!-- Shell -->
    <g transform="translate(-5, -8)">
      <circle cx="0" cy="0" r="18" fill="#FF6347"/>
      <path d="M 0,0 m -13,0 a 13,13 0 0,1 26,0 m -21,0 a 8,8 0 0,1 16,0 m -11,0 a 3,3 0 0,1 6,0" 
            fill="none" stroke="#8B4513" stroke-width="2"/>
    </g>
    
    <!-- Head -->
    <ellipse cx="18" cy="-4" rx="12" ry="10" fill="#D2691E"/>
    
    <!-- Eyes -->
    <circle cx="22" cy="-10" r="2.5" fill="white"/>
    <circle cx="14" cy="-10" r="2.5" fill="white"/>
    <circle cx="22" cy="-10" r="1.2" fill="black"/>
    <circle cx="14" cy="-10" r="1.2" fill="black"/>
    
    <!-- Antennae -->
    <line x1="22" y1="-10" x2="24" y2="-15" stroke="#D2691E" stroke-width="1.5" stroke-linecap="round"/>
    <line x1="14" y1="-10" x2="12" y2="-15" stroke="#D2691E" stroke-width="1.5" stroke-linecap="round"/>
    <circle cx="24" cy="-15" r="1.5" fill="#D2691E"/>
    <circle cx="12" cy="-15" r="1.5" fill="#D2691E"/>
    
    <!-- Smile -->
    <path d="M 14,-4 Q 18,-1 22,-4" fill="none" stroke="black" stroke-width="1.5" stroke-linecap="round"/>
    
    <!-- Camera -->
    <rect x="-22" y="-15" width="10" height="8" fill="black" rx="1"/>
    <circle cx="-17" cy="-11" r="2" fill="#4169E1"/>
    <rect x="-20" y="-16" width="6" height="1" fill="black"/>
    
    <!-- Animation -->
    <animateTransform attributeName="transform" type="translate" 
                      values="380,325; 385,323; 380,325" 
                      dur="1.2s" repeatCount="indefinite"/>
  </g>
  
  <!-- Sign -->
  <g transform="translate(600, 280)">
    <rect x="-5" y="0" width="10" height="40" fill="#8B4513"/>
    <rect x="-40" y="-30" width="80" height="30" fill="#654321" rx="3"/>
    <text x="0" y="-10" text-anchor="middle" font-family="Helvetica Neue, Helvetica, Arial, sans-serif" font-size="14" font-weight="500" fill="white">Next Stop!</text>
  </g>
</svg>